<svg width="34" height="33" viewBox="0 0 34 33" fill="none" xmlns="http://www.w3.org/2000/svg">
<path fill-rule="evenodd" clip-rule="evenodd" d="M16.9656 7.59646L19.2213 12.1369C19.3782 12.4527 19.6815 12.6715 20.0324 12.7221L25.0766 13.4502C25.9602 13.5779 26.3127 14.6562 25.6736 15.2749L22.0236 18.8092C21.7699 19.0549 21.654 19.4092 21.714 19.7561L22.5755 24.7466C22.7266 25.6207 21.8029 26.2871 21.0127 25.8747L16.5013 23.5187C16.1875 23.355 15.8125 23.355 15.4987 23.5187L10.9873 25.8747C10.1971 26.2875 9.27344 25.6207 9.42446 24.7466L10.286 19.7561C10.346 19.4092 10.2301 19.0549 9.9764 18.8092L6.32641 15.2749C5.68727 14.6558 6.0398 13.5775 6.9234 13.4502L11.9676 12.7221C12.3185 12.6715 12.6218 12.4527 12.7787 12.1369L15.0344 7.59646C15.4291 6.80118 16.5705 6.80118 16.9656 7.59646Z" fill="#86E87D"/>
<path fill-rule="evenodd" clip-rule="evenodd" d="M18.9656 6.59646L21.2213 11.1369C21.3782 11.4527 21.6815 11.6715 22.0324 11.7221L27.0766 12.4502C27.9602 12.5779 28.3127 13.6562 27.6736 14.2749L24.0236 17.8092C23.7699 18.0549 23.654 18.4092 23.714 18.7561L24.5755 23.7466C24.7266 24.6207 23.8029 25.2871 23.0127 24.8747L18.5013 22.5187C18.1875 22.355 17.8125 22.355 17.4987 22.5187L12.9873 24.8747C12.1971 25.2875 11.2734 24.6207 11.4245 23.7466L12.286 18.7561C12.346 18.4092 12.2301 18.0549 11.9764 17.8092L8.32641 14.2749C7.68727 13.6558 8.0398 12.5775 8.9234 12.4502L13.9676 11.7221C14.3185 11.6715 14.6218 11.4527 14.7787 11.1369L17.0344 6.59646C17.4291 5.80118 18.5705 5.80118 18.9656 6.59646Z" fill="#0B1739"/>
</svg>
