<svg width="34" height="33" viewBox="0 0 34 33" fill="none" xmlns="http://www.w3.org/2000/svg">
<path d="M9.25001 18.8808C9.25001 18.4909 8.9352 18.1748 8.54689 18.1748H4.70313C4.31481 18.1748 4 18.4909 4 18.8808C4 19.2706 4.31481 19.5867 4.70313 19.5867H8.54689C8.9352 19.5867 9.25001 19.2706 9.25001 18.8808Z" fill="#86E87D"/>
<path d="M4.70313 16.763H6.20313C6.59144 16.763 6.90626 16.4469 6.90626 16.057C6.90626 15.6672 6.59144 15.3511 6.20313 15.3511H4.70313C4.31481 15.3511 4 15.6672 4 16.057C4 16.4469 4.31481 16.763 4.70313 16.763Z" fill="#86E87D"/>
<path d="M22.1298 9.41802C23.1364 8.40734 23.1364 6.7687 22.1298 5.75801C21.1231 4.74733 19.491 4.74733 18.4843 5.75801C17.4776 6.7687 17.4776 8.40734 18.4843 9.41802C19.491 10.4287 21.1231 10.4287 22.1298 9.41802Z" fill="#86E87D"/>
<path d="M27.0744 8.05445C26.3446 7.78775 25.5376 8.16557 25.272 8.89828L24.0695 12.2151L21.6817 11.3425C21.2535 11.5007 20.7912 11.5873 20.309 11.5873C18.8342 11.5873 17.5449 10.778 16.856 9.57907L16.2811 9.36899C15.5728 9.1102 14.8148 9.01814 14.0655 9.09994L11.3811 9.39309C10.5821 9.48034 9.90189 10.0159 9.62696 10.7741L8.53046 13.7987C8.26482 14.5314 8.64113 15.3416 9.37093 15.6083C10.1007 15.875 10.9077 15.4972 11.1733 14.7645L12.0775 12.2703L14.9205 11.9961L11.5037 21.4209H7.96468C7.05858 21.4209 6.32409 22.1583 6.32405 23.068C6.32405 23.9777 7.05858 24.7152 7.96468 24.7152H12.3243C13.2111 24.7152 14.0032 24.1584 14.3065 23.3217L15.0761 21.1988L17.719 22.1646L16.0424 26.7895C15.6529 27.8638 16.4453 29 17.5841 29C18.2738 29 18.8899 28.5669 19.1257 27.9162L21.2031 22.1858C21.6016 21.0867 21.0371 19.8714 19.9424 19.4714L18.8412 19.069L20.6849 13.9832L23.7683 15.11C24.863 15.51 26.0735 14.9433 26.4719 13.8442L27.9148 9.86408C28.1805 9.13133 27.8042 8.32115 27.0744 8.05445Z" fill="#86E87D"/>
<path d="M11.25 17.8808C11.25 17.4909 10.9352 17.1748 10.5469 17.1748H6.70313C6.31481 17.1748 6 17.4909 6 17.8808C6 18.2706 6.31481 18.5867 6.70313 18.5867H10.5469C10.9352 18.5867 11.25 18.2706 11.25 17.8808Z" fill="#0B1739"/>
<path d="M6.70313 15.763H8.20313C8.59144 15.763 8.90626 15.4469 8.90626 15.057C8.90626 14.6672 8.59144 14.3511 8.20313 14.3511H6.70313C6.31481 14.3511 6 14.6672 6 15.057C6 15.4469 6.31481 15.763 6.70313 15.763Z" fill="#0B1739"/>
<path d="M24.1298 8.41802C25.1364 7.40734 25.1364 5.7687 24.1298 4.75801C23.1231 3.74733 21.491 3.74733 20.4843 4.75801C19.4776 5.7687 19.4776 7.40734 20.4843 8.41802C21.491 9.42871 23.1231 9.42871 24.1298 8.41802Z" fill="#0B1739"/>
<path d="M29.0744 7.05445C28.3446 6.78775 27.5376 7.16557 27.272 7.89828L26.0695 11.2151L23.6817 10.3425C23.2535 10.5007 22.7912 10.5873 22.309 10.5873C20.8342 10.5873 19.5449 9.77798 18.856 8.57907L18.2811 8.36899C17.5728 8.1102 16.8148 8.01814 16.0655 8.09994L13.3811 8.39309C12.5821 8.48034 11.9019 9.01586 11.627 9.77412L10.5305 12.7987C10.2648 13.5314 10.6411 14.3416 11.3709 14.6083C12.1007 14.875 12.9077 14.4972 13.1733 13.7645L14.0775 11.2703L16.9205 10.9961L13.5037 20.4209H9.96468C9.05858 20.4209 8.32409 21.1583 8.32405 22.068C8.32405 22.9777 9.05858 23.7152 9.96468 23.7152H14.3243C15.2111 23.7152 16.0032 23.1584 16.3065 22.3217L17.0761 20.1988L19.719 21.1646L18.0424 25.7895C17.6529 26.8638 18.4453 28 19.5841 28C20.2738 28 20.8899 27.5669 21.1257 26.9162L23.2031 21.1858C23.6016 20.0867 23.0371 18.8714 21.9424 18.4714L20.8412 18.069L22.6849 12.9832L25.7683 14.11C26.863 14.51 28.0735 13.9433 28.4719 12.8442L29.9148 8.86408C30.1805 8.13133 29.8042 7.32115 29.0744 7.05445Z" fill="#0B1739"/>
</svg>
