<svg width="32" height="32" viewBox="0 0 34 33" fill="none" xmlns="http://www.w3.org/2000/svg">
<path d="M27.5481 13.3653C27.4818 13.337 25.8657 12.647 16.2975 8.56098C16.1071 8.47967 15.8915 8.47967 15.7012 8.56098L4.45059 13.3653C3.8469 13.6226 3.85271 14.467 4.45059 14.7216C6.6362 15.6548 10.2093 17.1808 15.7012 19.526C15.8904 19.6068 16.106 19.6078 16.2975 19.526C16.819 19.3033 23.9249 16.2688 24.2498 16.1301V24.001C24.2498 24.3991 24.5604 24.7415 24.9639 24.76C25.3946 24.7798 25.7498 24.4418 25.7498 24.0217V15.8621C25.7498 15.7459 25.6625 15.6478 25.5456 15.633C24.1379 15.4542 17.4986 14.6098 15.9032 14.407C15.4418 14.3502 15.1542 13.8897 15.2755 13.4799C15.3707 13.1337 15.7042 12.9133 16.042 12.9362C16.0756 12.9381 26.7643 14.2974 26.7566 14.2964C26.9563 14.3217 27.1205 14.4477 27.1993 14.6186C27.2545 14.7381 27.3948 14.7928 27.5154 14.7371C27.7172 14.6439 27.8922 14.5212 27.9718 14.2435C28.0743 13.8837 27.8891 13.5107 27.5481 13.3653Z" fill="#86E87D"/>
<path d="M15.1045 20.8823L8.82653 18.2015C8.67174 18.1353 8.49895 18.2472 8.49895 18.4134V21.0652C8.49895 23.5519 11.7935 25.5 15.9993 25.5C20.2052 25.5 23.4997 23.5519 23.4997 21.0652V18.4134C23.4997 18.2472 23.327 18.1354 23.1722 18.2015L16.8938 20.8823C16.3237 21.1265 15.675 21.1263 15.1045 20.8823Z" fill="#86E87D"/>
<path d="M29.5481 12.3653C29.4818 12.337 27.8657 11.647 18.2975 7.56098C18.1071 7.47967 17.8915 7.47967 17.7012 7.56098L6.45059 12.3653C5.8469 12.6226 5.85271 13.467 6.45059 13.7216C8.6362 14.6548 12.2093 16.1808 17.7012 18.526C17.8904 18.6068 18.106 18.6078 18.2975 18.526C18.819 18.3033 25.9249 15.2688 26.2498 15.1301V23.001C26.2498 23.3991 26.5604 23.7415 26.9639 23.76C27.3946 23.7798 27.7498 23.4418 27.7498 23.0217V14.8621C27.7498 14.7459 27.6625 14.6478 27.5456 14.633C26.1379 14.4542 19.4986 13.6098 17.9032 13.407C17.4418 13.3502 17.1542 12.8897 17.2755 12.4799C17.3707 12.1337 17.7042 11.9133 18.042 11.9362C18.0756 11.9381 28.7643 13.2974 28.7566 13.2964C28.9563 13.3217 29.1205 13.4477 29.1993 13.6186C29.2545 13.7381 29.3948 13.7928 29.5154 13.7371C29.7172 13.6439 29.8922 13.5212 29.9718 13.2435C30.0743 12.8837 29.8891 12.5107 29.5481 12.3653Z" fill="#0B1739"/>
<path d="M17.1045 19.8823L10.8265 17.2015C10.6717 17.1353 10.499 17.2472 10.499 17.4134V20.0652C10.499 22.5519 13.7935 24.5 17.9993 24.5C22.2052 24.5 25.4997 22.5519 25.4997 20.0652V17.4134C25.4997 17.2472 25.327 17.1354 25.1722 17.2015L18.8938 19.8823C18.3237 20.1265 17.675 20.1263 17.1045 19.8823Z" fill="#0B1739"/>
</svg>
