<svg width="60" height="56" viewBox="0 0 60 56" fill="none" xmlns="http://www.w3.org/2000/svg">
<path d="M48.1701 21.6848C47.6771 28.6037 47.0048 35.5155 46.2758 42.4141C45.6791 48.0614 43.2921 54.1498 39.7115 53.4439C36.1309 52.738 37.6229 35.5315 37.6229 35.5315C37.6229 35.5315 38.3815 27.6314 39.2422 21.2226C40.1166 18.9502 47.8743 19.4833 48.1701 21.6848Z" fill="#86E87D"/>
<path d="M48.8367 14.0375C49.2522 8.42928 49.096 3.50075 45.6791 3.50075C42.1185 3.43694 41.2127 7.43102 40.4617 12.676C40.4596 13.0464 40.5017 13.4365 40.6289 13.8262C41.4763 16.4224 44.9306 17.2188 47.3988 16.5591C48.3144 16.3144 48.6343 15.4502 48.8367 14.0375Z" fill="#86E87D"/>
<path d="M9.26753 40.278C9.26753 40.278 10.1833 32.1922 11.0803 27.357C12.1162 21.773 12.1861 16.6466 16.2597 16.7085C20.9078 16.7085 18.6036 25.6177 18.3337 31.3979C19.9834 31.7751 21.6185 32.1997 23.2244 32.7355C23.5961 29.9129 24.0679 26.6048 24.5352 24.0831C25.6988 17.8038 25.7773 12.039 30.3531 12.1086C35.5892 12.1086 32.9712 22.1847 32.6803 28.683C32.1712 33.4777 31.5167 39.6353 30.9349 44.3083C30.3531 48.9813 28.026 54.0194 24.5352 53.4352C21.2165 52.8799 22.3675 39.9838 22.4891 38.7136C20.8782 38.3956 19.2592 38.1292 17.6497 37.7908C17.3607 40.427 17.0596 43.0804 16.7776 45.3425C16.2597 49.498 14.1879 53.9782 11.0803 53.4587C7.97268 52.9393 9.26753 40.278 9.26753 40.278Z" fill="#86E87D"/>
</svg>
