<svg width="328" height="420" viewBox="0 0 328 420" fill="none" xmlns="http://www.w3.org/2000/svg">
<g clip-path="url(#clip0_4495_8777)">
<rect width="1184" height="420" rx="20" fill="#86E87D"/>
<g filter="url(#filter0_f_4495_8777)">
<path d="M79.7126 87.5234C51.3817 102.315 20.6191 133.028 20.6191 133.028C20.6191 133.028 83.0568 67.4895 139.815 61.1261C192.814 55.1841 228.822 76.7489 270.177 101.854C343.492 146.36 430.734 230.982 430.734 230.982L331.225 236.236C331.225 236.236 289.364 156.644 246.248 121.116C225.72 104.201 188.623 64.5682 142.982 66.1843C116.924 67.1071 102.83 75.4542 79.7126 87.5234Z" fill="white"/>
</g>
<g filter="url(#filter1_f_4495_8777)">
<path d="M141.724 189.414C163.832 203.838 186.667 231.546 186.667 231.546C186.667 231.546 140.577 172.677 94.4259 162.909C51.3311 153.788 20.0063 168.637 -15.9981 185.97C-79.8261 216.697 -158.31 279.289 -158.31 279.289L-76.9262 291.562C-76.9262 291.562 -36.151 229.477 2.13406 203.718C20.3621 191.453 54.0268 161.837 91.4174 166.814C112.765 169.655 123.685 177.644 141.724 189.414Z" fill="white"/>
</g>
<g filter="url(#filter2_f_4495_8777)">
<path d="M63.8092 303.744C30.5356 314.768 -8.2012 342.646 -8.2012 342.646C-8.2012 342.646 59.2794 281.111 133.511 285.766C292.562 303.318 295.048 336.44 408.039 356.82C470.084 368.01 545.631 372.003 579.713 375.764L332.342 515.964C332.342 515.964 334.264 441.162 293.952 394.928C274.759 372.916 200.389 304.944 132.355 296.235C104.008 292.606 90.9593 294.749 63.8092 303.744Z" fill="white"/>
</g>
</g>
<defs>
<filter id="filter0_f_4495_8777" x="-9.38086" y="30.1309" width="470.115" height="236.105" filterUnits="userSpaceOnUse" color-interpolation-filters="sRGB">
<feFlood flood-opacity="0" result="BackgroundImageFix"/>
<feBlend mode="normal" in="SourceGraphic" in2="BackgroundImageFix" result="shape"/>
<feGaussianBlur stdDeviation="15" result="effect1_foregroundBlur_4495_8777"/>
</filter>
<filter id="filter1_f_4495_8777" x="-188.31" y="130.135" width="404.976" height="191.427" filterUnits="userSpaceOnUse" color-interpolation-filters="sRGB">
<feFlood flood-opacity="0" result="BackgroundImageFix"/>
<feBlend mode="normal" in="SourceGraphic" in2="BackgroundImageFix" result="shape"/>
<feGaussianBlur stdDeviation="15" result="effect1_foregroundBlur_4495_8777"/>
</filter>
<filter id="filter2_f_4495_8777" x="-48.2012" y="245.515" width="667.915" height="310.449" filterUnits="userSpaceOnUse" color-interpolation-filters="sRGB">
<feFlood flood-opacity="0" result="BackgroundImageFix"/>
<feBlend mode="normal" in="SourceGraphic" in2="BackgroundImageFix" result="shape"/>
<feGaussianBlur stdDeviation="20" result="effect1_foregroundBlur_4495_8777"/>
</filter>
<clipPath id="clip0_4495_8777">
<rect width="328" height="420" rx="20" fill="white"/>
</clipPath>
</defs>
</svg>
