<?xml-stylesheet type="text/css" href="../sections/header/index.css" ?>
<svg viewBox="0 0 35 32" xmlns="http://www.w3.org/2000/svg">
<path d="M10.509 17.5425C10.6576 14.2351 11.9946 9.10674 9.32063 9.10674C6.9839 9.07132 6.94379 12.0054 6.34958 15.2013C5.83505 17.9687 5.30972 22.5966 5.30972 22.5966C5.30972 22.5966 4.56695 29.8432 6.34958 30.1405C8.13222 30.4378 9.32063 27.8736 9.61774 25.4952C9.91484 23.1169 10.2491 19.9829 10.509 17.5425Z"/>
<path d="M12.1957 21.5942C13.6227 21.7139 15.8353 22.7914 15.8353 20.6365C15.8506 18.7534 14.5847 18.7211 13.2058 18.2423C12.0118 17.8276 10.0151 17.4043 10.0151 17.4043C10.0151 17.4043 6.88861 16.8057 6.76034 18.2423C6.63207 19.6788 7.73838 20.6365 8.76452 20.8759C9.79066 21.1154 11.1428 21.3847 12.1957 21.5942Z"/>
<path d="M18.74 15.9603C18.9069 12.241 20.4087 6.47399 17.4051 6.47399C14.7803 6.43415 14.7352 9.7336 14.0678 13.3275C13.4898 16.4395 12.8997 21.6437 12.8997 21.6437C12.8997 21.6437 12.0653 29.7927 14.0678 30.127C16.0702 30.4614 17.4051 27.5779 17.7388 24.9033C18.0726 22.2288 18.448 18.7045 18.74 15.9603Z"/>
<path d="M27.6255 11.9548C27.5995 12.3185 27.5788 12.672 27.5659 13.0115C27.2663 16.3278 26.8812 20.5869 26.5389 23.8191C26.1966 27.0513 24.8273 30.536 22.7734 30.132C20.7194 29.7279 21.5753 19.8799 21.5753 19.8799C21.5753 19.8799 22.0104 15.3583 22.5042 11.6903C23.0058 10.3897 27.4558 10.6948 27.6255 11.9548ZM28.0079 7.57795C28.2462 4.36812 28.1566 1.54731 26.1966 1.54731C24.1541 1.51078 23.6345 3.79677 23.2037 6.79872C23.2025 7.01072 23.2267 7.23396 23.2996 7.45702C23.7857 8.94294 25.7672 9.39874 27.1831 9.02119C27.7083 8.88114 27.8918 8.38649 28.0079 7.57795Z"/>
</svg>